<svg width="82" height="50" viewBox="0 0 82 50" fill="none" xmlns="http://www.w3.org/2000/svg">
<path d="M8.36759 35.9076L4.11232 48.7857H0L7.06318 28.9299H11.0632L18.1545 48.7857H14.0128L9.72943 35.9357C9.52139 35.2554 9.32228 34.4705 9.13338 33.5809H9.01979C8.81175 34.4705 8.59478 35.2452 8.36759 35.9063V35.9076ZM4.08424 44.3607L3.97065 40.9567H14.1544L14.0409 44.3607H4.08424Z" fill="#323C3C"/>
<path d="M19.3057 34.4894H22.9649V36.3898C23.3235 35.7849 23.8341 35.2794 24.4965 34.8723C25.1576 34.4664 25.8302 34.2622 26.5105 34.2622H27.7013C28.5144 34.2622 29.2661 34.5034 29.9566 34.9859C30.6471 35.4683 31.1997 36.1256 31.6158 36.9578C32.0319 37.79 32.2399 38.7166 32.2399 39.7376V48.7868H28.5807V40.3337C28.5807 39.8232 28.4952 39.3509 28.3255 38.9157C28.1557 38.4805 27.9094 38.141 27.5877 37.8946C27.2661 37.6496 26.8883 37.5258 26.4531 37.5258H25.5456C25.0542 37.5258 24.6139 37.6866 24.2272 38.0082C23.8392 38.3299 23.5329 38.7651 23.3057 39.3126C23.0785 39.8614 22.9649 40.4754 22.9649 41.1569V48.7868H19.3057V34.4894Z" fill="#323C3C"/>
<path d="M39.2523 29.4976V34.4893H43.1106V37.5524H39.2523V44.1613C39.2523 44.728 39.3799 45.13 39.6352 45.3674C39.8905 45.6035 40.2351 45.7222 40.6703 45.7222H43.0251V48.7854H39.5931C38.3065 48.7854 37.3187 48.4357 36.6294 47.7362C35.939 47.0368 35.5943 45.9775 35.5943 44.5595V37.5537H32.9281V34.4905H35.5943V31.0304L39.2536 29.4988L39.2523 29.4976Z" fill="#323C3C"/>
<path d="M44.6493 28.9297H48.3085V36.3898C48.6672 35.7848 49.1777 35.2794 49.8401 34.8723C50.5012 34.4664 51.1739 34.2622 51.8542 34.2622H53.045C53.858 34.2622 54.6097 34.5034 55.3002 34.9859C55.9907 35.4683 56.5434 36.1256 56.9595 36.9578C57.3755 37.7899 57.5836 38.7165 57.5836 39.7376V48.7868H53.9244V40.3337C53.9244 39.8231 53.8388 39.3509 53.6691 38.9157C53.4993 38.4804 53.253 38.1409 52.9314 37.8946C52.6097 37.6495 52.2319 37.5257 51.7967 37.5257H50.8892C50.3979 37.5257 49.9575 37.6866 49.5708 38.0082C49.1828 38.3298 48.8765 38.765 48.6493 39.3126C48.4221 39.8614 48.3085 40.4753 48.3085 41.1569V48.7868H44.6493V28.9297Z" fill="#323C3C"/>
<path d="M64.7808 38.0211C64.3838 38.3325 64.0762 38.7448 63.8593 39.2553C63.641 39.7658 63.5325 40.3044 63.5325 40.8724V48.7869H59.8733V34.4895H63.5325V36.39C63.7967 35.785 64.1758 35.3166 64.6672 34.986C65.1586 34.6554 65.7457 34.4895 66.4259 34.4895H68.1847V37.5527H66.1988C65.6499 37.5527 65.1777 37.7084 64.7808 38.0211Z" fill="#323C3C"/>
<path d="M71.3054 48.0621C70.3405 47.4291 69.5849 46.5497 69.0361 45.424C68.4872 44.2995 68.2128 43.0372 68.2128 41.6371C68.2128 40.237 68.4872 38.976 69.0361 37.8503C69.5849 36.7258 70.3405 35.8464 71.3054 35.2121C72.2703 34.579 73.3475 34.2612 74.5396 34.2612H75.6742C76.865 34.2612 77.9435 34.5778 78.9084 35.2121C79.8733 35.8464 80.6289 36.7258 81.1777 37.8503C81.7266 38.976 82.001 40.2383 82.001 41.6371C82.001 43.036 81.7266 44.2995 81.1777 45.424C80.6289 46.5497 79.8772 47.4291 78.9225 48.0621C77.9678 48.6965 76.8944 49.013 75.7036 49.013H74.5689C73.359 49.013 72.2715 48.6965 71.3066 48.0621H71.3054ZM76.9506 45.3117C77.3666 44.9428 77.6972 44.4323 77.9435 43.7801C78.1886 43.1279 78.3124 42.4144 78.3124 41.6384C78.3124 40.8624 78.1886 40.1489 77.9435 39.4967C77.6972 38.8445 77.3615 38.334 76.9365 37.9651C76.5115 37.5963 76.0431 37.4125 75.5326 37.4125H74.6812C74.1707 37.4125 73.7023 37.5924 73.2773 37.9511C72.8523 38.311 72.5153 38.8164 72.2703 39.4686C72.0239 40.1208 71.9014 40.8445 71.9014 41.6384C71.9014 42.4323 72.0239 43.1559 72.2703 43.8081C72.5153 44.4603 72.8523 44.967 73.2773 45.3257C73.7023 45.6856 74.1707 45.8643 74.6812 45.8643H75.5606C76.0712 45.8643 76.5345 45.6805 76.9506 45.3117Z" fill="#323C3C"/>
<path d="M18.1332 14.5332C14.8235 14.5332 11.8366 13.1502 9.71918 10.9305C10.9403 9.45264 11.831 7.69197 12.2781 5.76099C13.336 7.9269 15.5603 9.41892 18.1329 9.41892V14.5329L18.1332 14.5332Z" fill="#323C3C"/>
<path d="M6.51898 0V2.90668H6.51247C6.51247 6.5034 3.59672 9.41914 0 9.41914V14.5331C6.42122 14.5331 11.6264 9.32761 11.6264 2.90668V0H6.51898Z" fill="#323C3C"/>
</svg>
