<svg width="2001" height="1025" viewBox="0 0 2001 1025" fill="none" xmlns="http://www.w3.org/2000/svg">
<path d="M296.314 436.878C277.713 436.878 262.635 451.957 262.635 470.557C262.635 489.157 277.713 504.236 296.314 504.236H356.209C374.809 504.236 389.888 489.157 389.888 470.557C389.888 451.957 374.809 436.878 356.209 436.878H296.314Z" fill="#1B66D6"/>
<path d="M220.035 632.128C244.709 632.128 264.712 610.952 264.712 584.831C264.712 558.71 244.709 537.534 220.035 537.534C195.361 537.534 175.358 558.71 175.358 584.831C175.358 610.952 195.361 632.128 220.035 632.128Z" fill="#1B66D6"/>
<path d="M201.419 497.314C215.812 497.314 227.48 484.961 227.48 469.724C227.48 454.487 215.812 442.134 201.419 442.134C187.026 442.134 175.357 454.487 175.357 469.724C175.357 484.961 187.026 497.314 201.419 497.314Z" fill="#1B66D6"/>
<path d="M325.927 611.108C340.32 611.108 351.988 598.755 351.988 583.518C351.988 568.281 340.32 555.928 325.927 555.928C311.534 555.928 299.865 568.281 299.865 583.518C299.865 598.755 311.534 611.108 325.927 611.108Z" fill="#1B66D6"/>
<path d="M1048.89 441.725C1048.89 433.618 1051.32 427.193 1056.07 422.155C1060.96 417.09 1067.04 414.522 1074.57 414.522H1168.66C1174.74 414.522 1179.67 419.738 1179.67 426.172C1179.67 432.606 1174.74 437.822 1168.66 437.822H1074.23C1072.38 437.822 1070.88 439.411 1070.88 441.372V519.667C1070.88 521.628 1072.38 523.217 1074.23 523.217H1135.1C1141.18 523.217 1146.11 528.433 1146.11 534.867C1146.11 541.301 1141.18 546.517 1135.1 546.517H1074.23C1072.38 546.517 1070.88 548.106 1070.88 550.067V628.186C1070.88 630.146 1072.38 631.736 1074.23 631.736H1168.66C1174.74 631.736 1179.67 636.951 1179.67 643.385C1179.67 649.819 1174.74 655.035 1168.66 655.035H1074.57C1066.91 655.035 1060.84 652.455 1056.08 647.415C1051.32 642.375 1048.89 635.946 1048.89 627.832V441.725Z" fill="#1B66D6"/>
<path d="M525.3 432.944L525.303 432.959L551.287 557.844C551.626 559.471 552.987 560.63 554.56 560.631C556.133 560.632 557.495 559.475 557.836 557.849L583.986 432.964C583.992 432.936 583.997 432.907 584.003 432.878C584.94 427.811 587.451 423.502 591.738 419.888C596.002 416.294 600.783 414.522 606.2 414.522C612.834 414.522 618.248 416.91 622.669 421.698L622.695 421.725C627.236 426.538 629.492 432.352 629.492 439.387V643.745C629.492 650.106 624.621 655.263 618.612 655.263C612.603 655.263 607.732 650.106 607.732 643.745V439.387C607.732 437.579 606.448 436.06 604.751 435.859C603.053 435.659 601.484 436.841 601.108 438.605L574.462 563.49C574.45 563.544 574.44 563.597 574.431 563.651C573.718 567.902 571.5 571.664 567.424 574.955L567.393 574.981C563.42 578.267 559.172 579.841 554.562 579.841C549.674 579.841 545.449 578.288 541.754 575.175C538.036 572.043 535.772 568.193 534.837 563.534C534.834 563.518 534.83 563.502 534.827 563.485L508.015 438.6C507.637 436.838 506.068 435.658 504.371 435.859C502.674 436.061 501.392 437.58 501.392 439.387V643.745C501.392 650.106 496.52 655.263 490.512 655.263C484.503 655.263 479.631 650.106 479.631 643.745V439.387C479.631 432.376 481.926 426.57 486.57 421.751C491.252 416.893 496.703 414.522 503.09 414.522C508.381 414.522 513.11 416.284 517.386 419.888C521.685 423.513 524.262 427.845 525.3 432.944Z" fill="#1B66D6"/>
<path d="M971.21 502.616L971.215 502.6C976.074 487.386 978.503 471.688 978.503 455.524V426.041C978.503 419.679 983.374 414.522 989.383 414.522C995.392 414.522 1000.26 419.679 1000.26 426.041V455.524C1000.26 474.327 997.506 492.42 991.996 509.822L991.991 509.84L952.94 635.4L952.936 635.413C950.717 642.352 947.568 647.25 943.651 650.425C939.756 653.583 934.826 655.263 928.643 655.263C922.459 655.263 917.53 653.583 913.635 650.425C909.719 647.25 906.57 642.353 904.351 635.415L904.346 635.4L865.471 509.875L865.467 509.86C860.168 492.206 857.519 474.098 857.519 455.524V426.041C857.519 419.679 862.39 414.522 868.399 414.522C874.408 414.522 879.279 419.679 879.279 426.041V455.524C879.279 472.352 881.587 488.052 886.236 502.599L886.242 502.617L925.455 629.746C925.905 631.205 927.191 632.193 928.641 632.194C930.091 632.195 931.377 631.209 931.829 629.75L971.21 502.616Z" fill="#1B66D6"/>
<path fill-rule="evenodd" clip-rule="evenodd" d="M792.028 432.421L792.05 432.444C803.3 444.292 808.896 458.604 808.896 475.589V594.14C808.896 611.126 803.3 625.438 792.05 637.286L792.039 637.298C780.894 649.143 767.43 655.035 751.45 655.035H735.561C719.586 655.035 706.066 649.146 694.811 637.298C683.658 625.33 678.116 611.01 678.116 594.14V475.589C678.116 458.593 683.665 444.278 694.81 432.432C706.07 420.465 719.591 414.522 735.561 414.522H751.45C767.42 414.522 780.881 420.464 792.028 432.421ZM709.839 621.286L709.859 621.307C716.969 628.738 725.597 632.497 735.561 632.497H751.45C761.411 632.497 769.992 628.74 777 621.297C784.118 613.854 787.716 604.734 787.716 594.14V475.589C787.716 465.001 784.121 455.884 777.011 448.443C770.009 440.886 761.425 437.06 751.45 437.06H735.561C725.578 437.06 716.945 440.891 709.839 448.443C702.829 455.893 699.296 465.01 699.296 475.589V594.14C699.296 604.72 702.829 613.837 709.839 621.286Z" fill="#1B66D6"/>
<path fill-rule="evenodd" clip-rule="evenodd" d="M1342.2 432.421L1342.23 432.444C1353.48 444.292 1359.07 458.604 1359.07 475.589V594.14C1359.07 611.126 1353.48 625.438 1342.23 637.286L1342.21 637.298C1331.07 649.143 1317.61 655.035 1301.63 655.035H1285.74C1269.76 655.035 1256.24 649.146 1244.99 637.298C1233.83 625.33 1228.29 611.01 1228.29 594.14V475.589C1228.29 458.593 1233.84 444.278 1244.99 432.432C1256.25 420.465 1269.77 414.522 1285.74 414.522H1301.63C1317.6 414.522 1331.06 420.464 1342.2 432.421ZM1260.01 621.286L1260.03 621.307C1267.14 628.738 1275.77 632.497 1285.74 632.497H1301.63C1311.59 632.497 1320.17 628.74 1327.18 621.297C1334.29 613.854 1337.89 604.734 1337.89 594.14V475.589C1337.89 465.001 1334.3 455.884 1327.19 448.443C1320.19 440.886 1311.6 437.06 1301.63 437.06H1285.74C1275.75 437.06 1267.12 440.891 1260.01 448.443C1253.01 455.893 1249.47 465.01 1249.47 475.589V594.14C1249.47 604.72 1253.01 613.837 1260.01 621.286Z" fill="#1B66D6"/>
<path d="M1736.93 436.532C1735.08 436.532 1733.58 438.122 1733.58 440.082V629.019C1733.58 630.98 1735.08 632.569 1736.93 632.569H1750.76C1756.56 632.569 1761.26 637.547 1761.26 643.688C1761.26 649.829 1756.56 654.807 1750.76 654.807H1694.64C1688.84 654.807 1684.14 649.829 1684.14 643.688C1684.14 637.547 1688.84 632.569 1694.64 632.569H1708.47C1710.32 632.569 1711.82 630.98 1711.82 629.019V440.082C1711.82 438.122 1710.32 436.532 1708.47 436.532H1694.75C1688.89 436.532 1684.14 431.503 1684.14 425.299C1684.14 419.096 1688.89 414.067 1694.75 414.067H1750.65C1756.51 414.067 1761.26 419.096 1761.26 425.299C1761.26 431.503 1756.51 436.532 1750.65 436.532H1736.93Z" fill="#1B66D6"/>
<path d="M1443.34 636.155C1443.34 646.456 1435.45 654.807 1425.72 654.807C1415.99 654.807 1408.1 646.456 1408.1 636.155C1408.1 625.854 1415.99 617.503 1425.72 617.503C1435.45 617.503 1443.34 625.854 1443.34 636.155Z" fill="#1B66D6"/>
<path fill-rule="evenodd" clip-rule="evenodd" d="M1518.28 578.958C1515.71 590.215 1514.43 601.725 1514.43 613.483V642.966C1514.43 649.327 1509.56 654.484 1503.55 654.484C1497.54 654.484 1492.67 649.327 1492.67 642.966V613.483C1492.67 594.68 1495.43 576.586 1500.93 559.184L1500.94 559.166L1539.99 433.607L1540 433.594C1542.21 426.655 1545.36 421.757 1549.28 418.581C1553.18 415.423 1558.1 413.744 1564.29 413.744C1570.47 413.744 1575.4 415.423 1579.3 418.581C1583.21 421.756 1586.36 426.654 1588.58 433.591L1588.59 433.607L1627.46 559.132V559.147C1632.76 576.801 1635.41 594.909 1635.41 613.483V642.966C1635.41 649.327 1630.54 654.484 1624.53 654.484C1618.52 654.484 1613.65 649.327 1613.65 642.966V613.483C1613.65 601.389 1612.46 589.877 1610.06 578.958H1518.28ZM1602.84 553.902L1567.48 439.261C1567.03 437.801 1565.74 436.814 1564.29 436.813C1562.84 436.812 1561.55 437.798 1561.1 439.257L1525.59 553.902H1602.84Z" fill="#1B66D6"/>
<path d="M1781.97 417.871H1789.41V440.986H1793.17V417.871H1800.62V414.361H1781.97V417.871ZM1805.13 440.986H1808.9V431.911C1808.9 427.032 1808.73 421.981 1808.39 418.042L1812.99 435.764H1816.93L1821.53 418.128C1821.19 422.58 1821.02 427.802 1821.02 431.911V440.986H1824.87V414.361H1819.43L1817.76 420.953C1816.76 424.549 1815.84 428.144 1815 432.682C1814.08 428.144 1813.08 423.864 1812.24 420.868L1810.49 414.361H1805.13V440.986Z" fill="#1B66D6"/>
</svg>
